<svg version="1" xmlns="http://www.w3.org/2000/svg" width="400" height="400" viewBox="0 0 300.000000 300.000000"><path d="M134.7 50.5C119.2 55.8 107 73.9 107.4 91c.1 3.6.7 7.4 1.3 8.5 1 1.7.4 2.7-4.3 7.8-10.7 11.6-14.6 23.6-13.9 43.2.2 6.6.6 13.1.9 14.5.3 1.4 1.1 5.2 1.7 8.5.6 3.3 2.4 10.9 4 17 1.7 6 4.4 16.4 6.1 23 1.9 7.8 3.7 12.8 5.1 14.3 2.1 2.3 6.9 4.8 11.2 5.9 3.6.9 19.9 1.1 25.3.4l5.2-.7.1 5.5c0 3.1.2 7.3.3 9.4.3 4-.9 5.6-2.7 3.8-1.4-1.4-8.7-1.4-12.4 0-3.5 1.3-8 5.5-10 9.2-2.5 4.9-.7 14.3 3.3 16.5 1.4.8 1.4 1.6-.6 7.8-1.1 3.8-3 8.4-4 10.2-1.1 1.8-2 3.5-2 3.8 0 .2 14.2.4 31.6.4h31.6l-.5-2.7c-.3-1.6-1-4.6-1.5-6.9-.5-2.2-.5-5-.1-6.2 1-2.7 4.4-4.5 7-3.7 2.6.9 7.1 10.6 7.3 15.7l.1 3.8h7.6c8.5 0 8.5 0 6.6-8-1.1-4.7-6.6-17.3-7.8-17.8-.8-.3 1.2-6.2 2.1-6.2.3 0 .5-3.1.5-6.9-.2-5.2-.7-7.6-2.3-9.9-2.5-3.4-8.9-6.3-12.4-5.7-3 .6-9.8 3.6-9.8 4.4 0 .5-10.3.6-13 .2-.5-.1-1-5-1.3-14.5l-.2-6 3.5-.8c1.9-.5 5.8-1.8 8.5-2.8 2.8-1.1 5.9-2.2 7-2.4 1.1-.2 3.5-1 5.4-1.7l3.3-1.4-.6-12.5c-.3-6.9-.8-13.8-1.1-15.4-.3-1.6-.8-7-1-12-.2-5-.5-9.1-.5-9.1-.1 0-.3-2.9-.5-6.5-.4-6-1.4-20.9-2-29-.2-1.9-.5-4.2-.8-5-.3-.8-1.3-4.6-2.2-8.3-3.6-14.7-11.7-26-22.7-31.6-2.9-1.4-4.5-2.8-4-3.5 1.1-1.9 1.4-3.8 1.4-12.6.1-8.7-1.7-14.4-6.1-19.4-4.3-4.9-14-7.3-20.4-5.1z"/></svg>